<?xml version="1.0" standalone="no"?>
<!DOCTYPE svg PUBLIC "-//W3C//DTD SVG 20010904//EN"
 "http://www.w3.org/TR/2001/REC-SVG-20010904/DTD/svg10.dtd">
<svg version="1.0" xmlns="http://www.w3.org/2000/svg"
 width="1280.000000pt" height="1280.000000pt" viewBox="0 0 1280.000000 1280.000000"
 preserveAspectRatio="xMidYMid meet">
<metadata>
Created by potrace 1.15, written by Peter Selinger 2001-2017
</metadata>
<g transform="translate(0.000000,1280.000000) scale(0.100000,-0.100000)"
fill="#000000" stroke="none">
<path d="M210 12776 c0 -39 -22 -49 -80 -37 -28 6 -69 11 -90 11 l-40 0 0
-504 0 -504 46 -11 c282 -71 712 -44 844 54 109 80 239 361 291 628 23 117 34
276 25 340 l-7 47 -107 0 -107 0 -13 -66 c-15 -78 -43 -138 -76 -159 -13 -9
-57 -23 -97 -31 -152 -32 -299 6 -346 91 -26 47 -29 94 -8 135 l16 30 -126 0
c-125 0 -125 0 -125 -24z"/>
<path d="M2120 12796 c0 -3 44 -34 98 -70 166 -111 325 -174 409 -162 83 11
266 112 373 205 l35 30 -457 1 c-252 0 -458 -2 -458 -4z"/>
<path d="M3503 12736 c9 -96 33 -180 82 -282 76 -161 180 -296 261 -335 42
-20 56 -21 163 -16 288 14 553 149 637 324 23 48 28 72 28 138 1 89 -20 148
-74 205 l-28 30 -537 0 -538 0 6 -64z"/>
<path d="M4908 12773 c39 -56 190 -196 277 -258 83 -60 232 -145 252 -145 4 0
-19 15 -52 33 -33 18 -89 52 -125 77 -74 50 -255 222 -295 281 -20 27 -35 39
-52 39 l-24 0 19 -27z"/>
<path d="M5385 12790 c10 -16 118 -87 159 -104 21 -9 51 -16 66 -16 33 0 151
59 200 101 l34 29 -232 0 c-154 0 -231 -3 -227 -10z"/>
<path d="M6180 12718 c-41 -45 -109 -108 -150 -141 -99 -78 -109 -90 -31 -36
70 48 219 184 252 230 38 54 4 28 -71 -53z"/>
<path d="M7369 12758 c82 -112 280 -188 484 -188 129 1 168 26 256 164 17 28
31 54 31 58 0 4 -33 8 -72 8 -70 0 -74 -1 -93 -31 -28 -43 -65 -59 -132 -59
-87 0 -226 45 -248 80 -4 6 -58 10 -131 10 l-126 0 31 -42z"/>
<path d="M8799 12763 c137 -266 559 -600 783 -621 69 -6 147 18 279 83 249
125 500 361 575 542 l14 33 -185 0 -184 0 -17 -32 c-60 -119 -266 -275 -388
-295 -89 -14 -299 132 -392 272 l-37 55 -234 0 -233 0 19 -37z"/>
<path d="M10760 12783 c0 -34 29 -133 54 -181 87 -171 339 -325 645 -392 47
-11 97 -19 111 -19 14 0 -15 9 -64 19 -198 42 -366 113 -493 209 -120 91 -193
203 -210 321 -6 40 -13 56 -26 58 -11 2 -17 -3 -17 -15z"/>
<path d="M11187 12768 c17 -91 90 -171 208 -228 105 -51 191 -72 296 -74 79
-1 88 1 122 27 20 15 56 53 80 85 42 54 117 190 117 212 0 7 -138 10 -415 10
l-414 0 6 -32z"/>
<path d="M12292 12762 c-17 -57 -106 -235 -156 -311 -23 -36 -64 -91 -90 -121
l-48 -55 53 55 c58 61 139 181 189 280 42 84 82 190 71 190 -4 0 -13 -17 -19
-38z"/>
<path d="M12694 12735 c-165 -36 -304 -155 -364 -310 -32 -82 -32 -214 -1
-300 64 -176 220 -309 444 -375 l27 -9 0 505 0 504 -22 -1 c-13 0 -50 -7 -84
-14z"/>
<path d="M6365 12662 c-111 -38 -197 -107 -266 -214 -111 -172 -117 -416 -19
-710 84 -251 254 -530 378 -621 85 -63 222 -85 422 -67 446 40 807 217 933
458 111 210 82 426 -78 588 -148 150 -378 198 -594 124 -34 -12 -68 -19 -76
-16 -8 3 -19 24 -25 48 -49 185 -206 355 -378 408 -83 26 -226 27 -297 2z
m440 -581 c50 -22 87 -65 110 -126 10 -25 20 -45 24 -45 3 0 23 5 45 11 49 13
117 -2 164 -37 78 -60 94 -174 36 -256 -35 -50 -121 -100 -210 -122 -78 -20
-203 -21 -248 -2 -82 34 -176 239 -176 382 1 158 126 254 255 195z"/>
<path d="M5904 12484 c-18 -14 -18 -15 4 -4 12 6 22 13 22 15 0 8 -5 6 -26
-11z"/>
<path d="M5460 12360 c8 -5 20 -10 25 -10 6 0 3 5 -5 10 -8 5 -19 10 -25 10
-5 0 -3 -5 5 -10z"/>
<path d="M2895 12336 c-58 -18 -83 -33 -137 -84 l-48 -44 -37 32 c-127 112
-318 113 -426 2 -77 -79 -102 -206 -64 -317 41 -118 187 -263 355 -353 44 -23
83 -42 88 -42 5 0 -19 15 -52 34 -136 73 -279 208 -336 318 -29 57 -33 72 -33
148 0 68 5 93 22 126 82 155 296 180 441 53 18 -16 38 -29 45 -29 7 0 32 21
57 47 60 62 137 97 215 97 80 0 129 -18 183 -68 61 -56 84 -112 84 -205 0
-106 -51 -208 -170 -333 -68 -72 -75 -82 -34 -48 69 59 154 165 188 237 38 81
44 186 14 265 -51 135 -211 209 -355 164z"/>
<path d="M10473 12309 c-106 -20 -215 -102 -273 -204 -72 -126 -81 -308 -24
-523 10 -34 19 -60 21 -58 2 2 -3 30 -11 62 -79 308 -3 555 201 656 55 27 76
32 141 32 96 0 163 -22 240 -78 73 -54 126 -134 161 -239 l26 -82 40 1 c22 1
73 7 113 15 177 31 350 -50 433 -203 32 -60 34 -68 34 -163 0 -92 -3 -105 -32
-168 -59 -124 -188 -223 -381 -293 -38 -13 -52 -21 -32 -18 53 10 157 51 230
91 273 153 338 477 136 678 -121 121 -298 161 -483 109 -19 -5 -23 0 -37 45
-52 176 -192 310 -356 341 -60 11 -87 11 -147 -1z"/>
<path d="M11964 12248 l-19 -23 23 19 c21 18 27 26 19 26 -2 0 -12 -10 -23
-22z"/>
<path d="M8180 12239 c-32 -13 -78 -56 -97 -93 -22 -43 -20 -126 6 -179 28
-58 85 -123 147 -167 45 -31 43 -29 -22 35 -87 86 -124 153 -124 228 0 97 64
162 158 162 55 0 87 -13 164 -67 14 -10 22 -8 45 14 35 34 92 58 136 58 56 0
119 -39 145 -90 40 -79 27 -145 -49 -250 l-40 -55 36 40 c113 124 113 277 0
343 -33 19 -51 22 -107 20 -57 -3 -74 -9 -113 -36 l-46 -33 -32 27 c-60 51
-143 68 -207 43z"/>
<path d="M11618 12183 c12 -2 32 -2 45 0 12 2 2 4 -23 4 -25 0 -35 -2 -22 -4z"/>
<path d="M11808 12183 c7 -3 16 -2 19 1 4 3 -2 6 -13 5 -11 0 -14 -3 -6 -6z"/>
<path d="M4978 12116 c-105 -28 -153 -96 -153 -216 0 -64 5 -83 30 -130 41
-76 174 -207 263 -260 124 -73 194 -64 347 44 190 136 264 305 194 441 -37 74
-92 108 -179 113 -83 5 -124 -8 -178 -53 -22 -19 -43 -35 -47 -35 -4 0 -23 14
-43 31 -70 61 -157 86 -234 65z"/>
<path d="M1605 11988 c-11 -6 -32 -22 -47 -35 l-26 -25 -29 22 c-120 88 -271
-8 -233 -149 16 -60 98 -143 182 -186 39 -19 82 -35 95 -35 62 0 182 95 234
184 67 118 11 236 -111 236 -25 0 -54 -6 -65 -12z"/>
<path d="M9509 11956 c-134 -38 -254 -154 -294 -286 -14 -47 -21 -49 -88 -28
-79 25 -203 26 -272 3 -296 -101 -346 -460 -92 -651 166 -124 400 -194 646
-194 174 1 217 23 327 169 158 210 252 493 224 673 -35 229 -241 372 -451 314z"/>
<path d="M10566 11875 c-47 -17 -91 -57 -119 -110 -33 -59 -30 -212 5 -312 33
-92 87 -189 130 -230 43 -42 130 -57 242 -43 147 19 247 61 313 133 97 105 79
257 -39 334 -38 26 -49 28 -138 28 l-97 -1 -17 51 c-24 68 -96 138 -159 153
-57 15 -72 15 -121 -3z"/>
<path d="M3665 11817 c-148 -49 -240 -149 -280 -304 -8 -31 -15 -72 -15 -90
l0 -33 -79 0 c-153 0 -282 -65 -359 -180 -73 -109 -81 -231 -25 -353 56 -119
165 -202 318 -243 137 -36 439 -26 575 21 25 8 34 13 20 10 -226 -46 -411 -44
-581 6 -178 52 -292 165 -320 315 -20 111 37 242 139 315 71 50 135 69 239 69
99 0 108 8 116 113 7 93 50 179 122 246 75 68 146 94 245 89 165 -8 286 -119
335 -308 19 -70 25 -226 13 -345 -5 -53 -4 -61 3 -35 19 69 22 289 5 368 -32
153 -106 256 -223 314 -74 36 -180 47 -248 25z"/>
<path d="M12435 11531 c-22 -10 -53 -33 -69 -50 -33 -35 -48 -38 -67 -15 -20
25 -85 54 -134 61 -68 9 -132 -13 -182 -63 -69 -70 -82 -170 -32 -268 30 -60
147 -171 220 -209 30 -15 46 -22 35 -15 -178 122 -255 223 -256 335 0 65 13
99 52 140 72 74 193 73 292 -2 l33 -25 48 45 c105 99 241 95 321 -11 24 -31
29 -49 32 -108 4 -82 -12 -130 -72 -211 l-37 -50 37 40 c44 49 85 133 92 190
9 87 -42 177 -125 219 -44 22 -138 20 -188 -3z"/>
<path d="M3645 11444 c-68 -37 -100 -83 -120 -169 -11 -46 -14 -50 -39 -47
-86 11 -191 -52 -221 -133 -33 -86 10 -192 97 -237 119 -62 326 -64 441 -6 49
24 91 109 113 229 30 157 -3 290 -86 345 -52 35 -139 43 -185 18z"/>
<path d="M4620 11451 c-179 -55 -289 -231 -290 -466 0 -214 97 -529 198 -639
70 -75 236 -111 472 -103 178 6 273 26 387 82 291 143 324 495 63 660 -75 47
-201 72 -285 56 -60 -11 -75 -2 -75 44 0 53 -36 154 -76 212 -70 101 -188 164
-306 162 -35 0 -74 -4 -88 -8z"/>
<path d="M503 11276 c-183 -46 -313 -186 -344 -370 -29 -175 36 -351 206 -549
163 -191 480 -401 660 -438 80 -16 155 3 300 76 147 74 279 169 401 290 187
186 274 353 274 530 0 128 -38 232 -117 316 -95 102 -209 150 -353 150 -151 0
-269 -47 -384 -152 -35 -33 -68 -59 -73 -59 -5 0 -31 21 -58 47 -70 66 -158
120 -234 144 -82 26 -209 33 -278 15z"/>
<path d="M8070 11109 c-25 -11 -65 -37 -90 -58 l-46 -39 -34 29 c-57 48 -110
71 -175 76 -81 7 -133 -9 -187 -57 -86 -75 -105 -197 -49 -316 76 -163 362
-371 480 -349 83 16 224 108 317 207 74 79 109 139 129 215 34 131 -33 261
-154 302 -53 17 -140 13 -191 -10z"/>
<path d="M4111 11054 c0 -11 3 -14 6 -6 3 7 2 16 -1 19 -3 4 -6 -2 -5 -13z"/>
<path d="M11068 11033 c7 -3 16 -2 19 1 4 3 -2 6 -13 5 -11 0 -14 -3 -6 -6z"/>
<path d="M11018 11023 c7 -3 16 -2 19 1 4 3 -2 6 -13 5 -11 0 -14 -3 -6 -6z"/>
<path d="M5913 10981 c-49 -31 -68 -67 -68 -130 0 -43 7 -67 27 -102 54 -93
209 -209 278 -209 41 0 127 48 190 107 133 123 145 253 30 331 -57 38 -145 26
-207 -30 l-22 -20 -41 33 c-53 43 -137 52 -187 20z"/>
<path d="M2435 10896 c-60 -27 -95 -85 -95 -155 0 -37 -2 -39 -37 -45 -158
-25 -197 -214 -64 -303 19 -13 39 -23 45 -23 6 0 -7 11 -28 24 -136 82 -101
257 55 284 l42 7 3 53 c8 168 197 210 273 60 12 -24 19 -32 15 -18 -8 32 -48
86 -79 106 -34 22 -94 27 -130 10z"/>
<path d="M10565 10812 c-344 -102 -491 -475 -330 -839 141 -318 619 -727 948
-809 82 -20 142 -11 271 41 347 140 714 467 852 758 47 101 65 178 66 283 1
111 -13 176 -59 273 -45 94 -131 182 -228 232 -103 53 -154 64 -285 63 -96 -1
-127 -6 -188 -27 -101 -35 -173 -80 -258 -159 -39 -38 -76 -68 -81 -68 -5 0
-43 33 -85 73 -86 82 -174 138 -268 169 -91 30 -271 35 -355 10z m582 -442
c26 -11 64 -37 84 -57 l37 -35 58 41 c141 99 317 68 394 -69 36 -65 36 -173
-1 -250 -62 -133 -280 -305 -428 -339 -61 -13 -122 7 -229 79 -107 71 -200
168 -244 253 -29 56 -33 71 -33 147 0 69 5 93 22 127 63 117 208 161 340 103z"/>
<path d="M3910 10680 c-9 -6 -10 -10 -3 -10 6 0 15 5 18 10 8 12 4 12 -15 0z"/>
<path d="M6620 10534 c-204 -36 -348 -148 -436 -340 l-35 -74 -37 17 c-116 51
-283 67 -397 38 -192 -50 -339 -207 -368 -394 -21 -139 25 -297 122 -419 87
-109 273 -223 476 -290 164 -54 284 -75 460 -77 l160 -3 -140 8 c-335 18 -673
155 -865 349 -196 199 -211 466 -35 650 133 139 343 178 544 101 75 -29 84
-31 105 -17 13 9 32 41 44 74 64 175 223 308 401 336 300 46 543 -212 517
-549 -13 -172 -89 -391 -198 -571 -31 -51 -54 -93 -52 -93 11 0 101 153 149
253 93 193 127 325 127 484 0 281 -188 498 -448 516 -38 3 -80 3 -94 1z"/>
<path d="M3006 10495 c-86 -30 -121 -100 -121 -240 0 -64 5 -104 19 -139 16
-42 25 -51 72 -73 76 -34 170 -47 239 -33 163 34 196 215 51 281 -23 10 -50
19 -61 19 -17 0 -20 7 -22 44 -4 104 -88 171 -177 141z"/>
<path d="M8933 10459 c-79 -14 -139 -62 -170 -137 -17 -42 -19 -129 -3 -179
16 -49 70 -130 111 -168 26 -23 24 -19 -9 19 -118 138 -133 286 -38 381 88 87
211 85 320 -5 27 -22 49 -40 50 -40 1 0 22 18 46 40 60 55 113 73 193 68 87
-5 135 -37 172 -113 23 -46 27 -65 23 -113 -5 -67 -39 -145 -94 -212 -33 -42
-33 -42 11 5 109 118 131 256 58 366 -75 114 -248 130 -364 33 -46 -39 -52
-40 -69 -18 -43 51 -157 86 -237 73z"/>
<path d="M2308 10363 c7 -3 16 -2 19 1 4 3 -2 6 -13 5 -11 0 -14 -3 -6 -6z"/>
<path d="M7670 10274 c-153 -41 -265 -166 -306 -341 -45 -190 31 -524 174
-766 125 -212 193 -244 504 -234 229 7 357 36 528 120 112 55 206 146 252 243
31 65 33 76 33 179 0 102 -2 114 -30 170 -63 125 -189 213 -338 237 -64 10
-89 9 -167 -6 -55 -11 -95 -15 -101 -9 -5 5 -16 35 -24 68 -46 175 -188 313
-355 345 -69 13 -103 12 -170 -6z m329 -479 c38 -19 76 -66 91 -109 l11 -34
54 5 c153 16 243 -136 153 -258 -58 -78 -271 -133 -377 -96 -88 31 -172 249
-147 381 7 39 57 103 90 116 33 14 95 11 125 -5z"/>
<path d="M4418 10110 c-67 -17 -160 -71 -218 -126 -31 -30 -60 -54 -64 -54 -4
0 -33 22 -66 49 -106 88 -220 128 -340 118 -143 -12 -252 -83 -312 -204 -28
-56 -33 -79 -36 -157 -4 -78 -1 -102 21 -163 33 -96 100 -194 199 -292 148
-145 359 -278 507 -316 56 -14 68 -14 121 -1 242 62 565 353 663 598 17 42 21
75 22 158 0 98 -2 110 -32 172 -40 85 -106 151 -189 190 -54 25 -81 31 -152
34 -48 2 -104 -1 -124 -6z m-373 -253 c28 -14 61 -37 74 -51 14 -14 29 -26 34
-26 5 0 27 16 50 35 114 98 272 98 375 1 58 -54 77 -100 77 -191 0 -69 -4 -88
-30 -139 -33 -66 -128 -172 -209 -235 -85 -66 -202 -121 -256 -121 -126 0
-376 186 -461 342 -32 58 -34 70 -34 153 0 80 3 95 28 137 70 119 223 161 352
95z"/>
<path d="M4005 9668 c-56 -30 -73 -113 -36 -173 42 -69 144 -145 193 -145 70
0 196 103 219 178 23 77 -16 141 -91 149 -37 4 -52 0 -83 -21 -21 -14 -40 -26
-42 -26 -2 0 -21 11 -41 25 -39 26 -86 32 -119 13z"/>
<path d="M1840 10084 c-111 -30 -196 -109 -243 -228 -30 -74 -29 -207 2 -306
22 -70 96 -230 106 -230 3 0 -8 27 -25 60 -123 243 -115 454 22 587 65 64 127
88 223 88 68 0 89 -5 145 -31 77 -37 138 -93 180 -168 48 -85 48 -85 143 -40
77 37 87 39 177 39 82 0 103 -4 151 -26 76 -36 133 -90 166 -157 24 -50 28
-69 28 -147 0 -82 -3 -96 -34 -159 -39 -79 -116 -161 -207 -221 -100 -65 -102
-67 -37 -34 127 64 243 182 286 292 31 81 30 205 -5 279 -37 79 -98 142 -177
181 -62 30 -72 32 -176 32 -103 0 -114 -2 -179 -33 -38 -18 -70 -31 -71 -30
-1 2 -14 24 -29 50 -59 104 -173 187 -287 208 -67 13 -92 12 -159 -6z"/>
<path d="M6425 10017 c-50 -23 -95 -67 -122 -121 -14 -28 -26 -52 -28 -54 -1
-1 -18 5 -38 13 -20 8 -65 15 -100 15 -199 0 -287 -208 -151 -359 74 -82 231
-149 390 -166 93 -10 134 5 193 72 94 105 161 266 161 386 0 73 -40 150 -98
192 -36 24 -54 30 -110 32 -41 2 -78 -2 -97 -10z"/>
<path d="M9730 9948 c-33 -17 -51 -35 -68 -68 -21 -40 -23 -55 -19 -140 9
-166 46 -230 145 -251 221 -45 390 66 328 215 -20 48 -69 79 -133 84 -52 4
-53 5 -53 37 0 36 -32 89 -70 116 -43 30 -80 32 -130 7z"/>
<path d="M22 9870 l-22 -9 0 -296 0 -296 42 23 c63 34 210 184 238 243 35 71
39 168 11 223 -26 51 -55 79 -106 103 -42 20 -124 24 -163 9z"/>
<path d="M12389 9847 c-24 -13 -57 -43 -74 -66 -27 -38 -30 -51 -30 -114 1
-55 7 -84 25 -121 64 -132 288 -299 400 -300 25 0 55 6 68 13 l22 12 0 296 0
295 -27 -17 c-16 -10 -40 -29 -54 -42 l-27 -25 -48 35 c-90 63 -177 75 -255
34z"/>
<path d="M1963 9715 c-90 -54 -109 -179 -45 -306 64 -131 176 -239 245 -239
91 0 257 73 332 146 93 90 101 209 19 286 -57 53 -145 64 -222 26 -40 -19 -45
-19 -53 -5 -60 106 -184 147 -276 92z"/>
<path d="M858 9611 c-81 -26 -142 -64 -207 -131 -100 -101 -149 -220 -160
-389 l-6 -96 -105 -7 c-147 -9 -260 -49 -349 -124 l-31 -26 0 -354 0 -353 53
-40 c140 -105 296 -145 562 -145 296 0 593 73 708 174 113 100 203 394 214
705 12 359 -77 593 -282 731 -105 72 -272 95 -397 55z m106 -562 c56 -15 129
-92 152 -160 37 -110 13 -342 -48 -452 -50 -90 -141 -122 -348 -122 -130 0
-150 2 -195 23 -99 46 -156 125 -156 218 0 132 110 234 252 234 37 0 38 0 45
48 13 89 61 159 136 196 56 28 100 32 162 15z"/>
<path d="M6859 9253 c-13 -16 -12 -17 4 -4 9 7 17 15 17 17 0 8 -8 3 -21 -13z"/>
<path d="M6829 9213 c-13 -16 -12 -17 4 -4 16 13 21 21 13 21 -2 0 -10 -8 -17
-17z"/>
<path d="M10023 9191 c-124 -32 -252 -140 -313 -265 -53 -106 -70 -191 -70
-351 0 -220 50 -447 141 -634 73 -149 123 -197 249 -238 139 -45 240 -58 445
-57 252 0 387 28 557 116 187 96 304 308 270 488 -33 177 -155 314 -336 378
-62 22 -88 25 -199 25 -88 -1 -129 3 -132 11 -1 6 -8 47 -15 91 -26 177 -133
327 -286 401 -72 35 -86 38 -179 40 -55 2 -114 -1 -132 -5z m343 -492 c78 -37
132 -117 149 -221 l6 -36 53 5 c154 16 286 -95 286 -240 0 -164 -137 -266
-380 -283 -105 -8 -230 9 -290 39 -55 27 -95 90 -135 209 -32 100 -45 266 -25
346 38 161 200 248 336 181z"/>
<path d="M10261 8445 c-16 -14 -35 -42 -42 -62 -22 -68 11 -201 66 -258 32
-34 34 -35 112 -35 146 0 233 54 233 143 0 73 -50 117 -133 117 -42 0 -45 2
-51 31 -3 17 -20 44 -37 60 -42 39 -104 41 -148 4z"/>
<path d="M6745 9118 l-70 -73 73 70 c67 64 77 75 69 75 -1 0 -34 -33 -72 -72z"/>
<path d="M11815 9161 c-84 -39 -125 -110 -125 -219 0 -80 19 -151 66 -244 43
-85 53 -89 14 -5 -115 246 -53 463 132 460 76 -1 135 -42 176 -123 24 -48 37
-64 50 -61 9 2 51 4 94 5 70 1 80 -2 119 -29 79 -56 105 -156 61 -241 -27 -52
-65 -87 -137 -124 -33 -17 -49 -28 -35 -24 82 22 154 80 186 149 53 112 13
217 -101 271 -52 25 -109 30 -162 15 -30 -9 -31 -8 -49 37 -46 122 -180 183
-289 133z"/>
<path d="M2815 9141 c-157 -74 -239 -260 -221 -503 15 -220 94 -451 179 -523
77 -66 252 -101 461 -92 263 11 423 91 501 252 25 51 30 72 30 140 0 93 -27
164 -89 232 -71 79 -207 128 -320 116 -56 -7 -66 2 -66 60 0 51 -35 151 -70
203 -92 132 -265 182 -405 115z"/>
<path d="M5118 9136 c-89 -24 -165 -104 -195 -205 -13 -40 -17 -89 -16 -171 1
-137 24 -239 80 -350 35 -69 43 -77 93 -102 105 -52 292 -70 444 -43 134 24
229 85 278 178 29 55 31 165 4 217 -56 108 -152 162 -290 164 l-50 1 -12 68
c-33 179 -181 286 -336 243z"/>
<path d="M9043 8989 c-53 -26 -88 -66 -109 -127 l-17 -48 -77 1 c-68 0 -82 -3
-125 -30 -94 -58 -122 -168 -68 -266 46 -86 159 -140 313 -153 l75 -5 -95 18
c-116 23 -176 48 -229 96 -79 72 -92 180 -29 251 49 55 82 68 173 69 l79 0 6
30 c22 106 132 189 223 169 108 -23 160 -100 160 -239 0 -76 1 -77 8 -30 32
196 -128 343 -288 264z"/>
<path d="M12755 8788 c-84 -96 -126 -240 -106 -364 12 -80 65 -193 114 -249
l36 -40 1 348 c0 191 -2 347 -4 347 -3 0 -21 -19 -41 -42z"/>
<path d="M7134 8752 c-63 -22 -138 -70 -183 -116 -19 -20 -38 -36 -43 -36 -4
0 -30 20 -58 45 -65 58 -116 83 -201 101 -261 54 -479 -158 -425 -414 35 -171
172 -336 401 -484 130 -84 224 -122 306 -123 59 0 76 5 162 48 219 109 415
301 498 487 20 46 24 71 24 155 0 87 -3 107 -26 156 -34 72 -96 134 -168 167
-74 35 -209 42 -287 14z"/>
<path d="M4319 8707 c-58 -31 -98 -95 -106 -171 -6 -54 -7 -56 -35 -56 -63 0
-143 -52 -175 -114 -23 -44 -19 -117 8 -167 27 -49 94 -96 149 -104 32 -5 32
-4 -8 9 -100 33 -160 116 -147 205 6 37 16 55 54 92 39 40 54 48 96 54 72 9
78 14 81 72 10 201 250 258 338 81 14 -28 26 -59 26 -67 0 -8 3 -12 6 -9 11
12 -20 90 -52 127 -63 73 -152 91 -235 48z"/>
<path d="M2170 8601 c-63 -20 -102 -65 -114 -132 -6 -34 -9 -37 -53 -43 -59
-8 -107 -38 -127 -80 -36 -75 -8 -146 74 -188 47 -25 62 -28 149 -28 63 1 113
7 146 18 43 15 53 23 73 63 49 98 53 255 9 320 -37 55 -107 86 -157 70z"/>
<path d="M11622 8215 c-39 -17 -66 -72 -57 -115 17 -78 128 -184 206 -196 76
-12 219 120 219 203 0 99 -104 151 -183 92 -24 -17 -33 -20 -46 -10 -24 17
-78 41 -93 41 -7 -1 -28 -7 -46 -15z"/>
<path d="M8896 8144 c-90 -22 -190 -80 -276 -161 -43 -40 -83 -73 -90 -73 -7
0 -40 26 -74 58 -120 112 -250 164 -406 164 -264 -1 -458 -167 -502 -427 -47
-281 164 -616 551 -876 202 -136 370 -205 482 -197 209 15 609 300 803 572
209 294 219 593 25 800 -125 134 -319 187 -513 140z m385 -317 c51 -33 82
-100 76 -163 -10 -100 -92 -222 -198 -293 -58 -39 -68 -42 -109 -37 -65 8
-200 80 -260 137 -132 127 -117 286 32 331 47 14 113 0 160 -33 l29 -21 32 36
c44 49 82 66 148 66 42 0 65 -6 90 -23z"/>
<path d="M5643 8009 c-134 -22 -261 -93 -369 -205 -39 -41 -76 -74 -82 -74 -7
0 -35 21 -64 48 -215 193 -505 231 -729 96 -247 -149 -322 -488 -170 -770 157
-290 528 -586 884 -706 120 -40 196 -37 306 12 316 139 657 463 791 754 50
108 71 198 71 304 -1 157 -47 275 -150 384 -122 130 -302 188 -488 157z m30
-383 c64 -31 120 -89 150 -155 17 -36 21 -66 22 -137 0 -87 -2 -94 -44 -180
-37 -75 -60 -105 -145 -190 -56 -55 -134 -122 -175 -149 -182 -118 -257 -128
-404 -58 -224 108 -403 279 -465 445 -10 26 -16 75 -16 123 -1 72 3 89 32 148
62 125 163 182 312 175 99 -5 168 -34 236 -100 l42 -40 46 44 c47 45 115 85
170 99 17 5 65 7 107 5 59 -2 90 -9 132 -30z"/>
<path d="M4976 7367 c-73 -42 -97 -137 -55 -224 44 -91 188 -214 267 -229 74
-14 251 108 304 209 30 57 29 131 0 179 -23 37 -90 78 -128 78 -38 0 -94 -21
-124 -46 l-30 -26 -32 28 c-69 58 -137 68 -202 31z"/>
<path d="M12143 7855 c-138 -37 -245 -128 -308 -260 -21 -44 -39 -81 -40 -82
0 -2 -26 7 -56 18 -84 33 -218 37 -307 10 -175 -53 -292 -205 -292 -380 0
-175 97 -324 283 -433 70 -41 216 -102 224 -95 2 3 -23 14 -56 27 -148 55
-311 180 -365 280 -98 180 -62 378 89 492 103 78 265 101 391 57 92 -32 103
-33 124 -14 11 10 20 24 20 30 0 7 16 44 35 82 62 124 175 209 311 234 186 34
373 -99 425 -304 25 -102 -4 -319 -61 -452 -11 -26 -19 -50 -16 -52 5 -6 62
142 82 215 21 77 29 235 15 301 -35 165 -163 297 -319 330 -68 14 -114 13
-179 -4z"/>
<path d="M363 7755 c-142 -40 -245 -164 -274 -330 -37 -214 57 -587 183 -731
64 -73 188 -104 411 -104 320 0 535 96 624 277 24 51 28 69 28 148 0 83 -3 95
-34 153 -42 77 -94 125 -180 166 -62 29 -73 31 -181 31 l-115 1 -13 64 c-18
90 -52 161 -108 220 -90 96 -225 138 -341 105z m594 -582 c14 -9 34 -35 44
-57 17 -39 19 -40 62 -37 109 6 173 -93 115 -179 -35 -52 -105 -83 -198 -88
-98 -6 -114 3 -160 89 -28 52 -34 77 -38 141 l-5 77 36 36 c29 29 42 35 76 35
23 0 53 -8 68 -17z"/>
<path d="M2628 7741 c-79 -26 -139 -63 -197 -121 -28 -28 -55 -50 -62 -50 -6
0 -35 21 -63 48 -133 120 -306 163 -458 111 -110 -37 -183 -101 -236 -209 -24
-50 -27 -65 -27 -175 0 -108 3 -126 27 -182 97 -226 378 -482 643 -584 114
-44 172 -39 311 30 343 171 604 491 604 740 0 171 -83 306 -228 374 -58 27
-80 32 -162 34 -72 2 -109 -2 -152 -16z"/>
<path d="M3510 7502 c-19 -9 -45 -33 -58 -52 -52 -77 -9 -231 95 -339 l52 -54
69 6 c122 10 240 76 274 154 35 80 3 158 -78 189 -39 15 -53 15 -96 5 -28 -6
-52 -10 -53 -9 -1 2 -11 20 -24 40 -22 37 -89 78 -127 78 -10 0 -35 -8 -54
-18z"/>
<path d="M12037 7450 c-47 -14 -91 -54 -116 -105 -20 -39 -27 -46 -45 -40 -11
4 -47 9 -78 12 -147 14 -241 -121 -177 -254 11 -23 34 -54 51 -68 115 -97 357
-148 438 -92 42 27 113 132 141 206 12 31 24 88 27 128 6 89 -20 151 -79 190
-43 28 -114 39 -162 23z"/>
<path d="M10440 7397 c-86 -57 -100 -170 -37 -302 20 -41 38 -75 41 -75 3 0
-9 30 -26 68 -26 56 -32 80 -32 144 -1 71 1 79 30 115 74 92 200 72 253 -42
19 -41 23 -44 47 -35 38 15 111 12 144 -5 63 -32 92 -105 71 -175 -7 -25 -29
-54 -59 -81 -26 -23 -40 -39 -32 -34 73 40 110 97 110 168 0 106 -114 178
-231 145 -23 -7 -28 -4 -33 16 -8 32 -52 83 -87 101 -43 23 -120 19 -159 -8z"/>
<path d="M6782 7329 c-180 -35 -296 -215 -278 -429 4 -41 13 -97 21 -125 l15
-50 -8 45 c-4 25 -7 99 -7 165 0 112 2 124 29 179 56 115 143 176 261 184 158
9 292 -93 340 -261 9 -32 24 -61 32 -64 9 -3 39 0 67 7 226 59 440 -81 439
-288 -1 -168 -98 -284 -307 -369 -90 -36 -91 -44 -2 -13 144 49 252 134 302
236 38 79 44 186 15 265 -66 175 -261 259 -473 204 -23 -6 -27 -3 -33 27 -21
95 -111 210 -201 256 -33 17 -144 45 -163 41 -3 -1 -25 -5 -49 -10z"/>
<path d="M9915 7066 c-42 -18 -93 -79 -100 -119 l-6 -33 -68 0 c-57 1 -74 -3
-108 -26 -56 -37 -81 -101 -63 -161 17 -56 72 -109 145 -137 48 -19 81 -23
166 -24 119 -1 142 6 178 59 58 85 91 216 77 310 -16 105 -128 171 -221 131z"/>
<path d="M6848 6970 c-23 -12 -48 -39 -65 -67 -51 -88 -32 -242 47 -380 36
-63 69 -82 154 -90 127 -12 270 31 330 98 112 123 31 283 -142 284 l-64 0 -13
39 c-40 115 -151 166 -247 116z"/>
<path d="M3657 6729 c-117 -28 -194 -106 -241 -243 -4 -13 -11 -16 -24 -11
-48 21 -141 36 -182 30 -63 -9 -139 -45 -179 -86 -49 -49 -71 -103 -71 -179 0
-167 131 -294 376 -365 185 -54 349 -53 420 1 70 54 165 213 215 359 33 97 34
258 3 326 -59 126 -194 198 -317 168z"/>
<path d="M10566 6649 c-166 -57 -292 -200 -342 -389 -25 -95 -23 -295 5 -425
61 -291 210 -601 349 -726 87 -78 218 -105 477 -96 459 16 808 176 936 429 77
153 78 318 1 462 -39 75 -144 175 -224 214 -130 64 -293 78 -431 37 -42 -12
-62 -14 -70 -6 -6 6 -19 42 -28 81 -52 202 -198 365 -377 420 -87 27 -216 27
-296 -1z m418 -593 c43 -18 96 -82 116 -141 l16 -46 75 -2 c86 -2 127 -23 170
-85 36 -53 34 -143 -4 -200 -53 -80 -150 -122 -303 -130 -120 -5 -188 12 -221
56 -85 116 -130 339 -87 440 42 101 144 147 238 108z"/>
<path d="M11668 6623 c7 -3 16 -2 19 1 4 3 -2 6 -13 5 -11 0 -14 -3 -6 -6z"/>
<path d="M1763 6410 c-214 -38 -388 -209 -448 -441 -62 -237 3 -594 168 -924
74 -149 184 -297 242 -327 11 -6 1 6 -23 27 -123 107 -257 386 -323 670 -29
128 -37 381 -15 490 24 120 76 217 160 300 130 128 273 170 444 130 96 -23
160 -61 243 -144 85 -85 127 -160 158 -281 26 -102 30 -109 56 -116 13 -3 58
2 100 11 323 72 626 -117 676 -421 20 -126 -27 -286 -120 -401 -125 -155 -374
-268 -701 -319 -25 -4 -110 -10 -190 -15 l-145 -7 170 3 c626 14 1025 279
1025 680 0 296 -238 529 -555 542 -67 3 -123 0 -170 -10 -38 -9 -71 -14 -73
-12 -2 1 -12 39 -22 84 -66 277 -275 465 -536 485 -38 2 -92 1 -121 -4z"/>
<path d="M5972 6392 c-114 -41 -214 -135 -262 -247 -88 -206 -72 -533 40 -824
64 -164 129 -222 303 -266 209 -53 440 -56 626 -9 190 48 302 127 368 262 37
73 38 80 38 182 0 96 -3 110 -29 165 -81 164 -281 271 -468 250 -67 -8 -61
-16 -77 105 -15 119 -61 209 -145 288 -81 76 -150 104 -261 109 -60 2 -94 -1
-133 -15z"/>
<path d="M12136 6391 c-75 -49 -91 -147 -40 -240 52 -97 217 -221 294 -221 75
0 238 129 286 226 45 93 25 176 -57 232 -29 20 -44 23 -96 20 -52 -3 -69 -9
-103 -37 l-41 -33 -22 20 c-60 54 -165 70 -221 33z"/>
<path d="M9110 6331 c-98 -32 -185 -115 -220 -209 -59 -158 -25 -418 83 -626
76 -148 123 -176 322 -197 101 -10 261 0 350 22 279 71 420 261 344 466 -53
140 -226 233 -383 206 -30 -6 -59 -7 -64 -4 -4 3 -14 33 -21 66 -37 167 -156
274 -314 281 -40 2 -83 0 -97 -5z"/>
<path d="M8064 6289 c-101 -24 -205 -120 -239 -219 -9 -25 -18 -77 -22 -116
l-6 -71 -82 -6 c-138 -8 -250 -76 -305 -184 -21 -40 -25 -62 -25 -138 0 -81 3
-95 29 -140 85 -147 229 -209 481 -208 171 0 294 25 405 80 68 35 77 43 107
98 81 151 114 431 71 605 -43 175 -166 293 -315 305 -32 2 -76 0 -99 -6z"/>
<path d="M7278 6283 c7 -3 16 -2 19 1 4 3 -2 6 -13 5 -11 0 -14 -3 -6 -6z"/>
<path d="M277 6214 c-74 -23 -151 -103 -172 -178 -39 -133 9 -268 143 -404 42
-43 93 -89 112 -101 33 -21 33 -21 10 -1 -189 162 -269 297 -257 431 14 155
147 257 297 229 64 -12 104 -33 157 -81 24 -22 52 -39 64 -39 12 0 41 18 64
39 74 68 118 86 215 86 94 0 125 -12 181 -67 48 -49 72 -111 72 -188 -1 -113
-57 -218 -187 -345 -44 -44 -62 -65 -39 -47 64 50 165 164 196 219 42 79 60
162 48 227 -29 155 -138 243 -293 234 -85 -4 -143 -29 -212 -90 l-46 -40 -46
42 c-25 23 -65 51 -89 61 -61 27 -158 33 -218 13z"/>
<path d="M4910 6210 c-186 -33 -328 -162 -395 -358 -15 -43 -28 -66 -37 -64
-7 2 -40 11 -73 20 -87 22 -215 19 -295 -8 -217 -73 -349 -273 -319 -484 33
-235 218 -408 532 -495 153 -43 406 -68 527 -52 60 8 56 8 -60 10 -407 4 -783
169 -896 393 -86 170 -61 351 66 478 118 118 283 154 476 103 63 -17 65 -17
82 2 10 11 28 52 41 92 42 137 126 233 258 296 63 30 76 32 173 32 93 0 111
-3 163 -27 111 -52 202 -164 241 -297 20 -69 21 -243 2 -345 -19 -99 -76 -267
-121 -355 -19 -39 -33 -71 -30 -71 11 0 85 162 119 258 49 140 68 240 69 357
2 168 -36 275 -137 382 -67 73 -150 118 -241 133 -67 11 -81 11 -145 0z"/>
<path d="M4820 5761 c-80 -25 -139 -81 -167 -161 -15 -43 -21 -50 -38 -45 -57
17 -136 17 -180 0 -96 -36 -145 -105 -145 -202 0 -170 195 -295 465 -297 124
-1 150 12 216 109 75 109 119 237 119 344 0 92 -17 139 -70 192 -58 58 -132
80 -200 60z"/>
<path d="M1925 5741 c-46 -20 -100 -78 -123 -130 -25 -56 -21 -198 7 -291 30
-98 87 -206 133 -252 43 -43 88 -54 218 -52 204 4 372 82 426 198 81 174 -75
359 -269 319 -57 -12 -67 -10 -67 15 0 36 -49 120 -90 155 -69 59 -158 73
-235 38z"/>
<path d="M12482 5369 c-54 -27 -99 -81 -116 -139 l-13 -45 -77 4 c-62 2 -84
-1 -122 -19 -131 -64 -147 -221 -34 -324 82 -73 195 -107 357 -107 114 0 150
14 193 75 126 184 144 424 38 523 -58 54 -153 68 -226 32z"/>
<path d="M788 5195 c-51 -17 -131 -73 -172 -122 -14 -17 -41 -62 -59 -100 -31
-65 -32 -73 -32 -192 l-1 -125 -71 -12 c-278 -47 -436 -311 -326 -546 113
-242 432 -312 828 -182 183 60 296 135 333 221 46 107 70 333 52 493 -31 285
-125 462 -287 542 -78 38 -187 48 -265 23z"/>
<path d="M8963 5042 c-59 -21 -125 -64 -153 -99 -10 -13 -21 -23 -24 -23 -3 0
-32 20 -63 44 -76 58 -144 80 -231 74 -77 -6 -121 -25 -175 -77 -65 -61 -82
-103 -82 -206 0 -82 3 -96 33 -157 79 -161 338 -363 492 -384 139 -18 441 208
537 403 62 126 56 256 -16 344 -70 85 -209 120 -318 81z m52 -211 c76 -44 98
-146 51 -239 -30 -59 -137 -161 -200 -192 -87 -42 -186 -6 -301 108 -91 90
-118 184 -76 262 22 43 84 80 131 80 40 0 108 -29 129 -53 18 -23 30 -21 62 9
56 53 137 64 204 25z"/>
<path d="M5439 4957 c-52 -19 -79 -41 -111 -88 -65 -98 -46 -298 45 -472 42
-81 72 -103 157 -117 88 -15 189 -6 291 26 128 40 209 130 209 234 0 129 -115
222 -256 207 -38 -4 -56 -2 -58 6 -16 55 -42 113 -63 138 -51 60 -148 90 -214
66z"/>
<path d="M5114 4898 l-19 -23 23 19 c12 11 22 21 22 23 0 8 -8 2 -26 -19z"/>
<path d="M5049 4833 c-13 -16 -12 -17 4 -4 16 13 21 21 13 21 -2 0 -10 -8 -17
-17z"/>
<path d="M11621 4789 c-128 -24 -233 -162 -230 -302 l2 -52 8 62 c15 121 71
205 164 249 89 42 177 27 255 -43 55 -49 86 -109 96 -182 4 -28 12 -55 18 -58
6 -4 45 -8 86 -8 115 -2 197 -51 246 -147 48 -94 21 -213 -66 -291 -48 -44
-86 -63 -180 -89 -54 -15 -58 -17 -20 -12 187 24 314 148 312 302 -1 71 -22
121 -73 177 -51 55 -124 87 -216 93 l-71 5 -7 43 c-8 59 -59 158 -98 190 -64
54 -147 77 -226 63z"/>
<path d="M4928 4783 c7 -3 16 -2 19 1 4 3 -2 6 -13 5 -11 0 -14 -3 -6 -6z"/>
<path d="M6519 4756 c-112 -31 -227 -123 -282 -223 -38 -70 -67 -192 -67 -278
0 -183 98 -395 278 -602 172 -196 453 -383 577 -383 92 0 305 98 477 220 104
73 263 226 327 313 134 183 186 375 150 549 -43 204 -210 353 -413 365 -50 4
-105 1 -137 -7 -86 -19 -193 -77 -263 -141 -35 -32 -68 -59 -74 -59 -5 0 -28
24 -51 54 -125 162 -342 241 -522 192z m468 -391 c18 -8 55 -35 82 -60 l50
-47 51 41 c47 37 128 71 170 71 51 0 127 -34 167 -76 81 -84 93 -208 33 -331
-71 -143 -287 -318 -419 -339 -110 -18 -341 171 -427 349 -39 83 -49 147 -34
222 31 152 182 230 327 170z"/>
<path d="M7185 4158 c-11 -6 -30 -19 -41 -30 -21 -19 -22 -19 -59 6 -57 39
-107 36 -152 -9 -34 -34 -35 -38 -31 -93 5 -75 46 -136 129 -191 74 -49 108
-52 170 -13 85 55 149 146 149 214 0 89 -94 155 -165 116z"/>
<path d="M3163 4745 c-180 -49 -295 -187 -317 -381 -20 -167 83 -380 274 -573
207 -208 450 -345 577 -326 111 16 266 87 424 194 229 154 372 324 424 506 23
78 16 208 -14 288 -33 84 -114 167 -208 214 -67 33 -86 38 -168 41 -147 7
-252 -26 -356 -111 -93 -75 -78 -76 -155 1 -136 135 -318 191 -481 147z m396
-341 c36 -10 69 -30 103 -61 l49 -46 27 20 c44 32 68 43 122 53 109 21 208
-27 255 -124 52 -107 21 -222 -90 -331 -102 -99 -267 -185 -356 -185 -64 0
-151 53 -249 150 -108 107 -151 184 -158 282 -6 85 13 139 67 192 37 37 101
64 152 65 14 1 49 -6 78 -15z"/>
<path d="M10590 4710 c-55 -10 -123 -36 -173 -67 -42 -27 -125 -105 -150 -143
-13 -18 -21 -22 -30 -15 -132 99 -219 130 -349 123 -282 -15 -464 -291 -378
-572 38 -122 177 -291 316 -384 32 -22 37 -24 14 -6 -19 15 -78 71 -131 124
-80 80 -104 112 -140 185 l-44 88 0 121 c0 114 2 125 29 181 117 237 417 291
631 114 26 -22 54 -39 62 -39 8 0 27 14 41 32 106 125 162 168 263 199 112 35
229 20 322 -41 116 -78 179 -251 148 -409 -23 -119 -102 -271 -204 -396 -23
-27 -30 -41 -17 -30 46 39 144 182 186 270 54 114 68 180 62 291 -10 212 -148
359 -353 377 -33 3 -80 2 -105 -3z"/>
<path d="M1760 4700 c8 -5 20 -10 25 -10 6 0 3 5 -5 10 -8 5 -19 10 -25 10 -5
0 -3 -5 5 -10z"/>
<path d="M1808 4683 c7 -3 16 -2 19 1 4 3 -2 6 -13 5 -11 0 -14 -3 -6 -6z"/>
<path d="M1898 4663 c7 -3 16 -2 19 1 4 3 -2 6 -13 5 -11 0 -14 -3 -6 -6z"/>
<path d="M1948 4653 c6 -2 18 -2 25 0 6 3 1 5 -13 5 -14 0 -19 -2 -12 -5z"/>
<path d="M1970 4296 c-207 -58 -361 -223 -416 -449 -10 -38 -24 -71 -31 -74
-8 -3 -48 2 -89 11 -220 48 -423 -4 -564 -144 -102 -102 -150 -213 -150 -350
0 -389 396 -656 1030 -696 164 -10 352 15 437 59 77 40 191 197 278 381 108
228 154 406 162 616 5 126 3 157 -15 227 -52 207 -184 359 -358 413 -76 23
-211 26 -284 6z m54 -653 c109 -77 117 -248 20 -434 -19 -36 -53 -83 -75 -105
-38 -37 -43 -39 -114 -42 -196 -10 -377 66 -431 182 -29 61 -30 97 -5 151 43
95 150 135 267 100 18 -5 23 0 38 39 25 64 52 95 110 123 66 31 133 26 190
-14z"/>
<path d="M10390 4275 c-19 -9 -51 -32 -71 -51 l-35 -35 -38 30 c-67 53 -173
59 -235 14 -48 -36 -65 -70 -69 -136 -3 -53 0 -72 21 -114 53 -104 248 -243
342 -243 59 0 123 38 211 125 88 87 124 150 132 225 6 62 -23 128 -73 166 -46
34 -130 43 -185 19z"/>
<path d="M4785 4146 c-89 -39 -121 -154 -73 -255 24 -52 136 -166 189 -194
l34 -18 -30 22 c-111 83 -195 205 -195 282 0 144 160 207 285 111 l46 -35 32
27 c64 54 135 68 204 39 133 -56 143 -203 25 -339 -33 -38 -31 -37 9 4 62 65
84 112 84 181 -1 166 -204 243 -333 126 l-22 -21 -28 27 c-56 53 -159 73 -227
43z"/>
<path d="M8578 3927 c-187 -71 -281 -245 -248 -462 13 -87 57 -219 100 -306
73 -145 228 -337 303 -376 144 -74 551 6 771 152 158 105 234 240 224 395 -6
85 -44 164 -107 223 -123 116 -288 146 -453 83 -43 -16 -70 -21 -74 -15 -3 6
-21 41 -40 78 -44 87 -119 163 -203 203 -53 25 -80 31 -150 35 -57 2 -98 -1
-123 -10z m720 -444 c13 -8 33 -30 44 -49 16 -28 23 -32 38 -24 27 15 97 12
129 -5 38 -19 65 -77 56 -121 -15 -81 -126 -153 -248 -162 l-68 -5 -39 42
c-55 57 -91 133 -97 200 -4 47 -1 61 19 91 38 56 107 70 166 33z"/>
<path d="M5600 3733 c-64 -23 -142 -105 -168 -176 -43 -113 -23 -269 53 -434
38 -83 112 -198 146 -228 12 -11 6 2 -14 28 -135 178 -207 438 -164 588 44
151 182 235 320 195 95 -28 177 -106 208 -199 18 -56 29 -61 90 -43 67 20 153
20 212 0 98 -33 176 -135 178 -232 3 -99 -24 -163 -98 -233 -59 -56 -103 -83
-197 -120 -39 -16 -64 -28 -56 -28 29 0 157 56 213 93 100 67 148 144 155 254
6 91 -14 148 -75 213 -78 83 -206 117 -323 85 -58 -15 -70 -14 -70 10 0 57
-101 178 -180 216 -58 29 -167 34 -230 11z"/>
<path d="M10749 3723 l-24 -28 28 24 c15 14 27 26 27 28 0 8 -8 1 -31 -24z"/>
<path d="M11701 3664 c-225 -60 -356 -281 -308 -518 30 -148 127 -298 291
-452 186 -176 472 -335 600 -334 88 1 271 88 429 206 l87 64 0 519 0 519 -22
6 c-43 11 -164 6 -223 -9 -84 -22 -150 -61 -226 -132 -37 -35 -70 -63 -74 -63
-4 0 -37 27 -73 61 -138 126 -320 176 -481 133z m500 -388 c24 -14 51 -32 61
-38 13 -10 23 -6 52 20 126 110 310 31 310 -133 0 -94 -84 -211 -210 -291 -82
-53 -135 -67 -184 -50 -64 22 -129 65 -194 129 -70 69 -103 125 -112 191 -22
156 140 256 277 172z"/>
<path d="M0 3155 l0 -516 29 20 c16 12 58 54 94 94 220 248 276 469 172 684
-52 105 -160 195 -272 228 l-23 6 0 -516z"/>
<path d="M4792 3397 c-81 -30 -132 -99 -147 -199 l-6 -48 -52 0 c-53 0 -126
-27 -160 -58 -77 -69 -74 -217 5 -288 78 -72 231 -100 397 -73 101 16 158 45
186 94 58 99 83 302 49 414 -37 125 -162 197 -272 158z"/>
<path d="M7715 3341 c-61 -27 -111 -89 -125 -154 l-13 -55 -67 1 c-85 1 -151
-30 -194 -90 -85 -122 -5 -276 173 -331 41 -12 91 -17 186 -17 119 0 134 2
180 25 40 21 55 36 82 86 63 116 89 282 61 392 -15 59 -96 145 -147 155 -54
11 -93 8 -136 -12z"/>
<path d="M10726 3247 c-82 -46 -111 -178 -66 -307 11 -30 17 -44 14 -30 -19
93 -26 154 -20 192 18 117 116 178 212 132 45 -21 72 -57 86 -111 11 -44 11
-44 48 -38 58 10 113 -10 154 -55 30 -34 36 -47 36 -86 0 -72 -38 -127 -110
-158 -19 -8 -28 -15 -20 -16 25 0 96 50 114 82 42 70 38 130 -11 189 -34 40
-79 59 -142 59 -48 0 -49 1 -55 35 -4 20 -21 52 -39 72 -57 65 -132 80 -201
40z"/>
<path d="M3114 3238 c-23 -5 -58 -23 -80 -42 l-39 -33 -38 31 c-36 28 -45 31
-112 31 -64 0 -77 -3 -100 -25 -61 -57 -72 -137 -31 -219 48 -94 220 -221 301
-221 115 0 305 195 305 314 0 47 -31 114 -64 138 -34 25 -94 36 -142 26z"/>
<path d="M3619 2871 c-97 -31 -195 -114 -251 -212 -119 -207 -87 -588 78 -926
63 -129 131 -212 195 -237 116 -46 364 -68 540 -47 287 33 499 134 599 283
229 343 -72 755 -494 677 -67 -12 -86 -3 -86 43 0 47 -48 176 -86 234 -110
165 -316 242 -495 185z"/>
<path d="M6068 2843 c7 -3 16 -2 19 1 4 3 -2 6 -13 5 -11 0 -14 -3 -6 -6z"/>
<path d="M10180 2831 c-53 -17 -89 -42 -136 -94 -45 -49 -64 -88 -91 -186 -2
-10 -12 -11 -41 -5 -67 16 -183 9 -233 -13 -215 -96 -232 -377 -32 -515 112
-76 274 -120 453 -121 193 -2 239 21 323 159 117 193 164 452 108 596 -24 62
-87 135 -142 164 -38 19 -167 29 -209 15z"/>
<path d="M543 2774 c-47 -28 -87 -88 -97 -146 l-7 -38 -58 0 c-197 0 -282
-207 -135 -329 84 -69 293 -97 427 -57 68 20 94 53 133 166 64 191 30 355 -87
416 -46 23 -127 18 -176 -12z"/>
<path d="M8150 2658 c-43 -29 -60 -61 -60 -113 0 -59 53 -139 125 -187 23 -15
21 -12 -8 13 -65 58 -97 116 -97 177 0 46 4 58 29 83 47 46 129 40 188 -14
l22 -20 31 26 c57 49 126 48 182 -2 26 -23 33 -39 39 -82 l6 -54 2 45 c1 57
-25 101 -74 124 -47 23 -111 17 -154 -13 l-31 -22 -35 27 c-51 39 -118 44
-165 12z"/>
<path d="M5719 2636 c-263 -73 -377 -373 -243 -638 99 -196 332 -417 559 -530
144 -72 208 -78 330 -29 153 61 314 172 448 308 167 169 237 311 237 478 0
227 -156 397 -378 412 -139 10 -260 -33 -369 -131 -33 -31 -64 -56 -68 -56 -4
0 -35 26 -69 58 -34 31 -84 69 -112 84 -101 55 -233 72 -335 44z m731 -386
c76 -21 132 -120 111 -196 -25 -90 -128 -205 -223 -249 -67 -32 -80 -31 -153
4 -92 45 -181 125 -219 198 -20 40 -21 125 -1 163 45 87 160 102 253 33 l34
-25 28 27 c27 25 89 54 120 55 8 0 31 -5 50 -10z"/>
<path d="M8586 2463 c-6 -14 -5 -15 5 -6 7 7 10 15 7 18 -3 3 -9 -2 -12 -12z"/>
<path d="M1592 2339 c-64 -32 -96 -85 -100 -169 -4 -57 0 -75 23 -122 52 -106
169 -213 296 -273 70 -32 111 -31 183 5 228 116 349 326 273 471 -63 119 -227
146 -334 54 -48 -41 -54 -42 -79 -14 -10 12 -41 32 -69 45 -64 31 -135 31
-193 3z"/>
<path d="M7765 2217 c-223 -57 -365 -246 -365 -485 0 -48 7 -113 15 -145 39
-149 139 -309 292 -464 90 -92 93 -95 23 -19 -105 115 -172 209 -226 321 -55
114 -74 188 -74 291 0 266 188 458 445 457 148 0 254 -49 378 -174 49 -49 97
-89 107 -89 10 0 44 22 74 49 106 92 230 141 356 141 222 0 406 -142 449 -348
52 -249 -71 -479 -399 -745 l-35 -28 45 29 c73 48 195 157 251 224 127 152
179 276 179 423 -1 152 -34 245 -126 344 -93 101 -219 154 -369 154 -138 1
-239 -35 -363 -128 l-63 -48 -58 61 c-72 75 -165 136 -250 163 -82 26 -218 33
-286 16z"/>
<path d="M11246 2149 c-63 -15 -153 -69 -197 -116 -53 -57 -95 -150 -110 -239
-36 -220 125 -493 420 -715 120 -90 271 -171 354 -189 49 -11 65 -11 122 5
280 75 653 397 744 640 92 245 5 481 -215 582 -49 23 -76 28 -159 31 -88 4
-110 1 -173 -21 -71 -25 -175 -91 -221 -141 -31 -33 -41 -33 -77 5 -43 45
-141 112 -204 139 -62 26 -215 37 -284 19z m909 -283 c64 -29 110 -82 130
-148 18 -63 19 -89 2 -155 -48 -183 -336 -438 -493 -436 -97 1 -269 104 -383
229 -133 145 -154 314 -53 426 100 110 269 116 391 12 l42 -36 43 40 c100 92
217 117 321 68z"/>
<path d="M599 2031 c-117 -37 -223 -131 -279 -245 -51 -105 -64 -175 -64 -336
1 -160 20 -275 74 -439 29 -91 95 -237 111 -247 5 -3 -9 32 -31 78 -107 225
-149 576 -95 783 65 249 259 399 470 365 190 -31 327 -184 359 -401 8 -53 19
-95 27 -100 8 -5 46 -6 85 -3 200 18 385 -79 466 -244 31 -62 33 -73 33 -172
0 -100 -2 -109 -34 -173 -99 -197 -311 -297 -670 -317 l-136 -7 125 -1 c355
-5 604 106 707 315 33 67 38 86 41 168 7 147 -35 244 -146 347 -98 89 -230
133 -377 126 l-70 -3 -7 69 c-31 311 -318 524 -589 437z"/>
<path d="M2425 1946 c-137 -63 -183 -223 -121 -410 28 -82 64 -158 91 -191 9
-11 2 7 -14 41 -55 112 -75 191 -76 289 0 81 3 95 30 145 53 97 149 139 254
110 58 -15 142 -98 163 -160 13 -41 18 -45 44 -43 185 16 176 17 234 -14 75
-40 112 -94 118 -173 10 -135 -59 -221 -236 -297 -32 -13 -43 -21 -27 -18 59
13 160 69 205 114 76 76 101 189 61 276 -24 54 -100 119 -156 135 -44 12 -162
10 -195 -4 -11 -5 -20 7 -33 45 -25 68 -96 140 -162 162 -67 23 -121 21 -180
-7z"/>
<path d="M8057 1756 c-137 -51 -192 -204 -124 -346 55 -116 187 -246 314 -311
52 -27 69 -30 106 -25 96 15 254 111 344 210 73 80 103 145 103 225 0 216
-231 306 -412 160 l-27 -22 -40 36 c-82 74 -185 103 -264 73z"/>
<path d="M5320 1729 c-86 -35 -131 -107 -139 -223 l-6 -79 -58 -14 c-77 -17
-108 -35 -150 -84 -81 -95 -62 -231 42 -303 108 -75 326 -71 497 10 110 52
139 116 139 309 0 141 -18 213 -72 292 -57 85 -169 125 -253 92z"/>
<path d="M10315 1571 c-136 -61 -185 -221 -135 -436 24 -106 84 -235 127 -277
46 -44 135 -61 283 -55 207 8 336 67 394 180 65 127 19 261 -111 322 -49 24
-66 27 -135 23 -77 -3 -79 -3 -84 22 -22 108 -64 171 -143 212 -64 33 -136 37
-196 9z"/>
<path d="M732 1529 c-85 -43 -124 -126 -125 -264 0 -148 52 -306 114 -344 111
-68 357 -65 476 5 123 72 146 214 49 310 -46 46 -93 64 -172 64 l-52 0 -11 62
c-25 146 -161 227 -279 167z"/>
<path d="M9642 1436 c-48 -17 -97 -67 -117 -118 l-16 -44 -62 0 c-77 0 -129
-23 -168 -77 -33 -45 -39 -113 -15 -170 31 -74 144 -135 265 -142 36 -2 55 -2
41 1 -140 25 -205 51 -252 101 -110 116 -22 280 146 271 l59 -3 12 40 c25 86
86 135 167 135 83 0 139 -56 163 -160 l15 -65 -6 54 c-9 91 -46 146 -117 176
-43 18 -69 18 -115 1z"/>
<path d="M7020 1194 c-30 -14 -74 -44 -97 -66 l-43 -42 -37 32 c-154 132 -361
116 -449 -34 -38 -65 -45 -175 -15 -254 47 -126 211 -287 375 -370 141 -71
198 -66 352 36 112 74 222 191 270 290 35 70 39 86 39 153 0 169 -108 278
-275 280 -50 1 -78 -5 -120 -25z"/>
<path d="M3930 1169 c-93 -18 -162 -97 -176 -201 -16 -118 81 -264 248 -374
90 -60 98 -56 11 5 -209 147 -286 338 -190 475 25 35 109 76 158 76 53 0 122
-27 167 -66 22 -18 43 -34 47 -34 4 0 25 16 47 36 54 48 101 67 170 67 168 1
256 -176 170 -339 -18 -33 -53 -85 -78 -115 l-46 -54 56 59 c78 82 116 162
116 240 -1 138 -90 226 -227 226 -66 0 -143 -31 -182 -73 l-24 -26 -35 31
c-67 58 -152 83 -232 67z"/>
<path d="M2824 896 c-72 -24 -122 -55 -187 -116 -36 -33 -69 -60 -75 -60 -6 0
-34 20 -64 45 -250 214 -617 111 -678 -190 -33 -161 35 -324 206 -493 l83 -82
467 0 467 0 70 72 c76 79 159 200 197 288 21 47 24 71 25 165 0 105 -2 114
-32 176 -39 79 -102 140 -181 177 -48 22 -73 27 -157 29 -63 1 -115 -3 -141
-11z m300 -235 c28 -28 31 -38 31 -90 0 -51 -5 -65 -37 -112 -48 -70 -125
-129 -177 -136 -74 -10 -209 75 -251 158 -37 72 -19 154 42 185 40 21 110 14
148 -14 27 -20 28 -20 45 -2 53 59 146 64 199 11z"/>
<path d="M5084 795 c-166 -36 -289 -160 -325 -326 -14 -67 -7 -200 15 -264 10
-27 38 -85 64 -127 36 -61 51 -78 69 -78 28 0 28 4 4 38 -10 15 -33 55 -50 89
-122 244 -56 491 160 593 157 74 335 36 489 -106 38 -35 74 -64 80 -64 5 0 37
25 71 55 114 102 255 148 382 126 177 -31 299 -155 328 -332 17 -107 -13 -233
-81 -338 -22 -34 -34 -61 -27 -61 16 0 73 88 106 164 23 54 26 74 26 176 -1
147 -21 203 -106 294 -166 178 -450 182 -647 10 l-52 -46 -65 60 c-77 73 -184
128 -275 142 -79 12 -89 12 -166 -5z"/>
<path d="M11825 756 c-153 -49 -273 -164 -330 -319 -10 -26 -21 -50 -25 -52
-4 -2 -39 7 -78 21 -137 47 -278 41 -400 -18 -71 -34 -158 -122 -192 -194 -38
-78 -53 -194 -26 -194 9 0 16 1 16 3 0 2 5 30 11 62 29 159 143 274 306 311
92 20 162 15 271 -22 98 -33 126 -29 149 24 76 174 133 247 239 300 196 99
397 44 515 -140 65 -102 86 -262 53 -413 -26 -123 -27 -131 -16 -120 5 6 19
48 31 94 26 106 29 271 5 352 -43 147 -162 269 -296 305 -65 17 -179 17 -233
0z"/>
<path d="M450 746 c0 -2 8 -10 18 -17 15 -13 16 -12 3 4 -13 16 -21 21 -21 13z"/>
<path d="M9017 649 c-141 -48 -241 -157 -277 -302 -17 -66 -8 -218 17 -287
l19 -55 238 -3 c225 -2 238 -1 231 15 -17 40 -17 134 -1 177 35 92 108 140
211 140 75 0 109 -12 177 -66 l37 -29 28 26 c120 116 326 80 387 -67 18 -42
21 -134 6 -172 l-10 -26 185 0 185 0 11 26 c60 159 16 368 -103 487 -97 97
-263 149 -403 127 -93 -15 -215 -75 -285 -139 -30 -28 -59 -51 -64 -51 -5 0
-41 31 -81 69 -112 106 -222 151 -370 151 -54 -1 -99 -7 -138 -21z"/>
<path d="M863 583 c9 -2 23 -2 30 0 6 3 -1 5 -18 5 -16 0 -22 -2 -12 -5z"/>
<path d="M7920 571 c-96 -31 -163 -105 -203 -223 -5 -15 -10 -15 -53 -2 -91
27 -190 8 -260 -49 -70 -58 -103 -179 -73 -266 l11 -31 119 0 119 0 -20 32
c-31 51 -27 110 11 153 39 44 93 62 148 48 l40 -11 23 46 c29 57 63 83 119 89
49 5 95 -19 132 -69 37 -49 27 -139 -28 -270 -6 -16 0 -18 68 -18 l75 0 25 63
c58 145 68 281 27 372 -20 46 -70 99 -114 122 -34 18 -130 26 -166 14z"/>
<path d="M620 469 c-78 -15 -184 -74 -248 -139 -78 -79 -128 -176 -156 -303
l-6 -27 129 0 c104 0 131 3 142 16 19 24 59 41 111 49 45 7 47 8 53 49 24 147
183 202 280 95 38 -42 55 -92 55 -161 l0 -48 110 0 c61 0 110 3 110 8 -1 36
-38 148 -68 206 -103 196 -303 296 -512 255z"/>
<path d="M5358 430 c-74 -22 -128 -99 -128 -181 0 -55 33 -127 90 -196 l44
-53 243 0 243 0 41 53 c57 71 79 122 79 185 0 101 -67 181 -160 190 -72 7
-114 -4 -165 -44 l-46 -35 -40 32 c-62 49 -139 68 -201 49z"/>
<path d="M11724 376 c-49 -22 -103 -75 -130 -128 -13 -26 -28 -48 -33 -48 -5
0 -28 7 -51 15 -86 30 -196 10 -258 -48 -30 -28 -58 -82 -67 -130 l-7 -37 420
0 420 0 11 44 c6 25 11 74 11 109 0 83 -37 158 -99 202 -36 25 -53 30 -114 32
-46 2 -83 -2 -103 -11z"/>
<path d="M3747 299 c-119 -29 -217 -138 -241 -266 l-5 -33 532 0 c530 0 532 1
507 20 -71 55 -219 70 -320 31 -30 -12 -59 -21 -63 -21 -4 0 -17 21 -27 46
-43 99 -121 178 -207 208 -55 19 -132 26 -176 15z"/>
</g>
</svg>
